<?xml version="1.0" encoding="iso-8859-1"?>
<!-- Generator: Adobe Illustrator 19.0.0, SVG Export Plug-In . SVG Version: 6.00 Build 0)  -->
<svg xmlns="http://www.w3.org/2000/svg" xmlns:xlink="http://www.w3.org/1999/xlink" version="1.1" id="Layer_1" x="0px" y="0px" viewBox="0 0 511.999 511.999" style="enable-background:new 0 0 511.999 511.999;" xml:space="preserve" width="512px" height="512px">
<g>
	<g>
		<g>
			<path d="M455.73,311.33c14.422,0,28.647-5.614,39.32-16.289c21.666-21.667,21.666-56.92,0-78.587     c-9.078-9.077-21.017-14.664-33.648-15.968c-0.309-7.734-1.084-15.191-2.347-22.259c-4.336-24.248-14.028-44.037-28.807-58.817     c-19.177-19.176-47.004-29.817-81.072-31.182c-1.306-12.619-6.903-24.549-15.972-33.62c-21.667-21.665-56.92-21.665-78.586,0     c-14.769,14.769-19.85,36.331-13.777,55.816c-1.629,0.711-3.255,1.43-4.872,2.173V18.487c0-5.159-2.178-10.118-5.976-13.608     c-3.797-3.491-8.927-5.251-14.064-4.812L12.305,17.232C5.798,17.781,0.699,23.327,0.699,29.858v452.284     c0,6.531,5.099,12.078,11.607,12.626h0.001l203.623,17.166c0.515,0.043,1.031,0.065,1.544,0.065c4.611,0,9.104-1.734,12.52-4.875     c3.798-3.491,5.976-8.452,5.976-13.61v-76.95c15.524,4.9,31.463,7.299,47.287,7.299c19.487,0,38.789-3.643,56.905-10.704     c12.515,8.594,27.545,13.864,43.786,15.284c2.892,0.252,5.788,0.379,8.684,0.379c6.699-0.001,13.39-0.677,19.981-2.024     c34.21-6.991,61.924-30.999,78.036-67.601c6.394-14.523-0.221-31.542-14.746-37.936c-14.524-6.386-31.54,0.226-37.933,14.745     c-10.742,24.4-25.984,32.174-36.881,34.4c14.785-16.787,27.919-38.166,38.135-61.609     C444.629,310.482,450.192,311.33,455.73,311.33z M219.731,493.515c0,0.816-0.395,1.35-0.726,1.654     c-0.331,0.303-0.894,0.654-1.711,0.585L16.938,478.863V33.138l200.356-16.891c0.811-0.068,1.379,0.281,1.711,0.585     c0.331,0.305,0.726,0.839,0.726,1.654V493.515z M457.51,249.823c0.488-2.591,0.921-5.17,1.322-7.743     c2.558,0.576,4.945,1.841,6.85,3.746c5.471,5.471,5.471,14.374,0,19.845c-3.406,3.406-8.2,4.728-12.686,3.831     C454.752,262.974,456.269,256.399,457.51,249.823z M455.732,286.023c7.813,0,15.575-3.015,21.43-8.869     c11.804-11.804,11.804-31.009,0-42.813c-4.505-4.505-10.251-7.396-16.373-8.43c0.259-3.051,0.454-6.078,0.582-9.074     c8.335,1.209,16.161,5.068,22.195,11.101c15.335,15.334,15.335,40.286,0,55.621c-10.142,10.144-24.808,13.806-38.266,10.091     c1.047-2.838,2.05-5.696,3.007-8.571C450.749,285.698,453.242,286.023,455.732,286.023z M266.1,66.092     c15.334-15.334,40.286-15.335,55.62-0.001c6.031,6.031,9.887,13.852,11.099,22.186c-3.003,0.13-6.029,0.339-9.07,0.597     c-1.033-6.123-3.927-11.872-8.433-16.378c-11.802-11.802-31.009-11.802-42.811,0c-7.707,7.707-10.49,18.718-7.957,28.803     c-2.861,0.952-5.71,1.969-8.549,3.018C252.303,90.868,255.968,76.224,266.1,66.092z M307.575,90.811     c-9.099,1.412-18.274,3.363-27.426,5.819c-0.883-4.476,0.442-9.254,3.839-12.65c5.473-5.473,14.375-5.473,19.846,0     C305.734,85.878,306.997,88.259,307.575,90.811z M235.97,399.438v-43.594l51.69,51.69     C270.373,408.076,252.851,405.446,235.97,399.438z M308.42,405.327l-72.45-72.45v-62.866l118.316,118.315     C340.029,396.694,324.491,402.402,308.42,405.327z M404.336,386.316c14.65-2.993,34.956-13.015,48.494-43.768     c2.786-6.328,10.202-9.206,16.529-6.425c6.329,2.786,9.211,10.202,6.424,16.531c-13.931,31.644-37.521,52.326-66.426,58.234     c-7.902,1.615-15.975,2.081-23.995,1.377c-9.655-0.843-18.985-3.423-27.266-7.442c9.242-5.029,18.04-11.026,26.241-17.963     C390.908,387.831,397.74,387.663,404.336,386.316z M382.507,366.51c-4.573,4.573-9.419,8.764-14.473,12.598L235.97,247.045     v-50.908l6.082,6.081c1.585,1.585,3.664,2.377,5.741,2.377s4.156-0.792,5.741-2.378c3.171-3.171,3.171-8.311,0-11.482     l-17.564-17.564v-42.579c31.209-15.41,66.763-24.9,98.336-26.136c25.477-0.998,60.8,2.779,84.458,26.438     c23.871,23.871,32.177,66.122,22.787,115.92C432.858,292.921,410.234,338.785,382.507,366.51z" fill="#FFFFFF"/>
			<path d="M188.843,238.475c-15.215,0-27.593,12.378-27.593,27.593c0,15.216,12.378,27.593,27.593,27.593     c15.216,0,27.594-12.378,27.594-27.593C216.437,250.853,204.059,238.475,188.843,238.475z M188.843,277.423     c-6.261,0-11.354-5.094-11.354-11.354s5.094-11.354,11.354-11.354c6.262,0,11.355,5.094,11.355,11.354     S195.105,277.423,188.843,277.423z" fill="#FFFFFF"/>
			<path d="M259.066,156.122l-2.885,2.885c-3.171,3.171-3.172,8.312-0.001,11.483c1.585,1.586,3.664,2.378,5.742,2.378     c2.078,0,4.155-0.792,5.741-2.377l2.886-2.885c3.171-3.171,3.172-8.312,0.001-11.482     C267.378,152.952,262.237,152.953,259.066,156.122z" fill="#FFFFFF"/>
			<path d="M345.309,245.653c-3.171-3.17-8.312-3.17-11.483,0c-1.224,1.226-2.853,1.9-4.585,1.9c-1.732,0-3.36-0.674-4.585-1.9     c-1.224-1.224-1.899-2.853-1.899-4.584c0-1.732,0.674-3.36,1.899-4.584c1.585-1.586,2.378-3.664,2.378-5.742     c0-2.078-0.792-4.156-2.377-5.741c-3.172-3.172-8.312-3.171-11.483-0.001c-2.528,2.529-6.643,2.528-9.17,0.001     c-1.225-1.226-1.9-2.855-1.9-4.586c0-1.732,0.674-3.36,1.899-4.584c3.171-3.171,3.171-8.312,0-11.483     c-3.171-3.172-8.312-3.171-11.483-0.001c-4.291,4.293-6.656,9.998-6.656,16.068c0,6.069,2.363,11.777,6.656,16.069     c3.925,3.924,8.94,6.111,14.08,6.558c0.455,5.324,2.749,10.271,6.571,14.093c4.293,4.292,9.999,6.656,16.068,6.656     c6.069,0,11.775-2.364,16.067-6.656C348.481,253.965,348.481,248.825,345.309,245.653z" fill="#FFFFFF"/>
			<path d="M358.923,296.124c-3.171-3.17-8.312-3.17-11.483,0c-3.171,3.172-3.171,8.312,0,11.483l17.6,17.6     c1.585,1.585,3.664,2.377,5.741,2.377c2.078,0,4.156-0.794,5.741-2.377c3.171-3.172,3.171-8.312,0-11.483L358.923,296.124z" fill="#FFFFFF"/>
			<path d="M382.054,279.111l-2.885,2.886c-3.171,3.171-3.17,8.312,0.001,11.482c1.585,1.586,3.662,2.377,5.741,2.377     c2.078,0,4.156-0.792,5.742-2.378l2.885-2.886c3.171-3.171,3.17-8.312-0.001-11.482     C390.366,275.938,385.225,275.939,382.054,279.111z" fill="#FFFFFF"/>
		</g>
	</g>
</g>
<g>
</g>
<g>
</g>
<g>
</g>
<g>
</g>
<g>
</g>
<g>
</g>
<g>
</g>
<g>
</g>
<g>
</g>
<g>
</g>
<g>
</g>
<g>
</g>
<g>
</g>
<g>
</g>
<g>
</g>
</svg>
